<svg xmlns="http://www.w3.org/2000/svg" width="326" height="133.281" viewBox="0 0 326 133.281">
  <g id="logo" transform="translate(-1851.853 -85.618)">
    <g id="Group_3" data-name="Group 3" transform="translate(1853.057 96.37)">
      <path id="Path_7" data-name="Path 7" d="M1932.265,124.891c-3.176,1.878-6.14,3.466-8.917,5.332-1.748,1.175-3.067,1.059-4.83-.008-6.883-4.169-13.876-8.156-20.8-12.254a1.958,1.958,0,0,0-2.312-.041c-7.248,4.29-14.541,8.505-21.781,12.807a2.472,2.472,0,0,1-2.962.035c-2.808-1.758-5.694-3.392-8.544-5.083-.353-.21-.681-.464-1.241-.849,1.662-.989,3.141-1.878,4.63-2.751q14.947-8.764,29.887-17.542a1.978,1.978,0,0,1,2.324.021q16.453,9.705,32.944,19.347C1931.1,124.164,1931.526,124.438,1932.265,124.891Z" transform="translate(-1856.852 -104.172)" fill="#00aff0"/>
      <path id="Path_8" data-name="Path 8" d="M1889.744,214.673c-4-2.337-7.755-4.522-11.5-6.712-7.6-4.444-15.186-8.906-22.8-13.321a2.542,2.542,0,0,1-1.511-2.534c.066-12.934.039-25.868.039-38.8v-1.37c.606.3,1.059.5,1.482.739,2.872,1.65,5.717,3.35,8.619,4.946a2.061,2.061,0,0,1,1.238,2.1c-.044,8.623,0,17.246-.052,25.868a2.249,2.249,0,0,0,1.3,2.24c7.369,4.271,14.7,8.606,22.077,12.868a1.979,1.979,0,0,1,1.131,2.014C1889.716,206.588,1889.744,210.471,1889.744,214.673Z" transform="translate(-1853.932 -124.256)" fill="#00aff0"/>
      <path id="Path_9" data-name="Path 9" d="M1929.136,214.53c0-4.365-.034-8.481.051-12.6.009-.433.651-.979,1.125-1.259,7.136-4.213,14.274-8.427,21.466-12.545a3.059,3.059,0,0,0,1.774-3.114c-.085-8.391-.024-16.784-.061-25.175a2.167,2.167,0,0,1,1.273-2.235c2.872-1.554,5.673-3.24,8.5-4.872.439-.253.888-.49,1.511-.833.042.646.1,1.091.1,1.536q.007,19.486.015,38.973a1.787,1.787,0,0,1-.9,1.858q-17.007,9.9-33.977,19.857C1929.819,214.241,1929.6,214.318,1929.136,214.53Z" transform="translate(-1885.553 -124.243)" fill="#00aff0"/>
      <path id="Path_10" data-name="Path 10" d="M1886.878,175.476c0-6.3-.009-12.457.022-18.616a1.37,1.37,0,0,1,.51-1.019c5.286-3.139,10.6-6.238,16.051-9.433a9.107,9.107,0,0,1,.129,1.024c.007,5.782.023,11.563-.025,17.344a1.989,1.989,0,0,1-.694,1.482c-5.114,3.064-10.271,6.056-15.42,9.062A3.057,3.057,0,0,1,1886.878,175.476Z" transform="translate(-1867.786 -121.933)" fill="#00aff0"/>
      <path id="Path_11" data-name="Path 11" d="M1945.6,175.561c-5.359-3.139-10.628-6.215-15.878-9.324a1.381,1.381,0,0,1-.644-.946c-.038-6.236-.028-12.472-.028-18.881.452.217.749.336,1.022.495,4.941,2.892,9.886,5.776,14.8,8.708a1.833,1.833,0,0,1,.871,1.226c.052,6.11.031,12.22.023,18.33C1945.767,175.247,1945.7,175.327,1945.6,175.561Z" transform="translate(-1885.519 -121.933)" fill="#00aff0"/>
      <path id="Path_12" data-name="Path 12" d="M1893.607,201.686c4.258-2.494,8.249-4.839,12.248-7.169,1.47-.856,2.959-2.333,4.44-2.332s2.97,1.477,4.439,2.334c4,2.333,8,4.681,12.146,7.113-.443.319-.749.578-1.089.777-4.82,2.826-9.637,5.655-14.478,8.444-.427.246-1.158.476-1.5.28C1904.476,208.078,1899.18,204.952,1893.607,201.686Z" transform="translate(-1870.616 -141.182)" fill="#00aff0"/>
    </g>
    <rect id="Rectangle_2" data-name="Rectangle 2" width="1.897" height="104.308" transform="translate(1952.4 88.737)" fill="#00aff0"/>
    <text id="Codeware_Lab" data-name="Codeware
Lab" transform="translate(1968.249 133.618)" fill="#00aff0" font-size="44" font-family="PlayfairDisplay-Bold, Playfair Display" font-weight="700"><tspan x="0" y="0">Codeware</tspan><tspan x="0" y="53">Lab</tspan></text>
    <text id="brew_code_in_our_lab_for_digital_products" data-name="brew code in our lab for digital products" transform="translate(1851.853 214.898)" fill="#00aff0" font-size="16" font-family="Montserrat-Medium, Montserrat" font-weight="500"><tspan x="0" y="0">brew code in our lab for digital products</tspan></text>
  </g>
</svg>
