<svg xmlns="http://www.w3.org/2000/svg" xml:space="preserve" x="0" y="0" version="1.1" viewBox="0 0 7578 2122"><path d="M1 362C1 256-17 70 92 17c56-24 122-17 171 20 39 31 54 74 54 123v177c0 77 29 128 107 129 145 1 290 0 436 0 56 0 104 18 134 68 29 42 31 96 7 141a134 134 0 01-125 78c-135 1-270 0-405 0-95 0-148 47-149 142-2 74 0 148 7 222 7 88 60 148 142 179 97 36 214 40 295-35 63-58 88-159 174-193 39-16 84-11 120 11 36 23 59 60 64 102 2 34-5 68-18 100-87 225-328 356-565 329-158-18-307-86-406-214C6 1229 2 1027 1 824V362zm1210 16c5-133-35-336 124-374 57-13 117 8 153 53 31 41 38 92 37 144-2 111-19 293 129 283 75-5 151-16 224-7 292 35 487 247 501 541 6 120 6 329 7 449 0 80-50 138-127 151-71 12-134-26-159-101-14-42-21-85-23-129-3-87-1-265-1-353 0-129-88-242-209-269-127-29-261 34-314 151-13 30-21 62-21 95-3 115-2 321-3 436-1 101-65 178-159 174-63-2-109-47-132-110-35-100-26-279-28-376l1-758zm1243 223c4-75 63-126 140-128s136 45 141 122c6 97 4 333 7 431 3 100 36 186 120 246 155 108 374 34 423-149 16-62 17-128 21-193 4-68-3-237-1-306 3-92 56-148 138-152 84-3 143 45 149 139 9 160 15 418-19 576-48 223-222 381-455 417-324 51-596-141-655-456-4-24-6-48-6-72l-3-475zm5121 426c0 128 1 303 0 431-2 113-97 186-203 160-68-18-112-74-114-151-2-114-4-277-4-393-1-134 0-268 1-402 0-45 4-89 33-126 47-67 140-87 211-44 5 3 9 6 14 9 42 32 67 82 65 135-3 126-3 254-3 381zM7410 44c92-1 167 73 168 165 3 93-71 171-164 174-93 3-171-71-174-164V210c0-89 77-165 170-166zm-555 1507c-164 83-328 94-495 27-255-103-403-388-341-654 65-278 324-468 605-443 289 26 507 250 521 541 6 137 2 274 4 412 1 78-21 142-97 174-78 32-142 9-197-57zm-272-753c-143-1-263 115-262 254 1 135 124 256 259 255a255 255 0 00 253-252c4-138-105-253-243-257h-7zm-1902-97A590 590 0 00 4240 469c-35-1-71 1-106 6-143 22-284 97-369 215-90 125-101 277-101 426l-1 715c0 49-1 98 0 150 2 68 37 115 96 133 98 30 177-33 180-137 2-64 1-129 2-193 0-52 1-115 39-155 23-24 58-34 91-36 33 0 67 3 100 8 162 16 337-27 460-140 144-132 192-348 152-536-6-27-13-53-23-79-19-52-46-101-79-145zm-457 616c-155 0-281-126-281-281s126-281 281-281 281 126 281 281c0 155-126 281-281 281zm1638-560c-84-138-237-243-394-275s-316 17-437 120C4920 697 4875 801 4860 941c-12 105 1 265 0 370 0 48 1 98 3 147 1 66 14 133 80 164 102 48 214-20 216-133 2-148 2-294 5-442 3-115 69-205 170-239 73-26 155-13 217 33 26 21 47 46 63 75 18 30 33 56 58 81 67 67 183 50 226-31 29-55 18-113-16-171-7-13-13-26-20-38" fill="#0066ff"/></svg>
